<svg xmlns="http://www.w3.org/2000/svg" width="460.723" height="395.026" viewBox="0 0 460.723 395.026">
  <g id="_404_error" data-name="404 error" transform="translate(-636.713 -55.354)">
    <g id="Group_152" data-name="Group 152">
      <g id="Group_151" data-name="Group 151" transform="translate(615)">
        <g id="OBJECTS">
          <g id="Group_2" data-name="Group 2">
            <g id="Group_1" data-name="Group 1">
              <path id="Path_1" data-name="Path 1" d="M231.613,144.744c-15.387-55.818-84.725-73.8-124.462-32.083q-.856.9-1.711,1.827c-56.969,61.928-30.057,214.538,88.837,253.218s242.56-31.954,249.507-95.1-47.9-82.981-133.028-65.325C262.663,217.261,241.192,179.492,231.613,144.744Z" fill="#cce1f7"/>
              <path id="Path_2" data-name="Path 2" d="M351.57,157.6c-15.908,2.589-20.316,16.683-8.034,26.681,4.06,3.305,9.858,6.05,18.117,7.42,31.463,5.22,48.159-8.7,35.547-26.749C389.416,153.809,367.334,155.029,351.57,157.6Z" fill="#cce1f7"/>
              <path id="Path_3" data-name="Path 3" d="M62.428,251.787c-9.889-12.726-24.373-9.849-27.271,5.721-.958,5.146-.592,11.551,2.159,19.458,10.48,30.122,30.695,38.115,40.5,18.4C83.872,283.2,72.229,264.4,62.428,251.787Z" fill="#cce1f7"/>
              <path id="Path_4" data-name="Path 4" d="M279.153,129.446l1.653-8.426-7.895-1.55a19.26,19.26,0,0,0-1.045-6.167l6.505-4.37-4.789-7.128-6.226,4.183a19.227,19.227,0,0,0-6.391-4.3l1.551-7.9-8.427-1.653-1.6,8.138a19.1,19.1,0,0,0-5.126,1l-4.371-6.507-7.127,4.789,4.183,6.226a19.221,19.221,0,0,0-4.3,6.392l-6.9-1.356-1.655,8.426,7.145,1.4a19.144,19.144,0,0,0,1.518,6.5l-6.228,4.183,4.789,7.128,6.506-4.37a19.214,19.214,0,0,0,6.277,3.646l-1.561,7.944,8.427,1.653,1.691-8.611a19.123,19.123,0,0,0,5.454-1.439l4.183,6.227,7.127-4.788-4.37-6.505a19.182,19.182,0,0,0,2.863-4.37Zm-21.163-3.375a7.87,7.87,0,1,1,2.144-10.922A7.879,7.879,0,0,1,257.99,126.071Z" fill="#cce1f7"/>
              <path id="Path_5" data-name="Path 5" d="M231.533,90.714l.9-4.6-4.314-.847a10.525,10.525,0,0,0-.571-3.37l3.555-2.389-2.617-3.895-3.4,2.286a10.505,10.505,0,0,0-3.493-2.35l.847-4.315-4.6-.9-.873,4.447a10.457,10.457,0,0,0-2.8.545l-2.389-3.555-3.895,2.617,2.286,3.4a10.505,10.505,0,0,0-2.35,3.493l-3.772-.741-.9,4.605,3.9.766a10.469,10.469,0,0,0,.829,3.554l-3.4,2.286,2.618,3.895,3.555-2.388a10.526,10.526,0,0,0,3.43,1.993l-.852,4.341,4.605.9.924-4.706A10.445,10.445,0,0,0,221.729,95l2.286,3.4,3.9-2.617-2.389-3.555a10.5,10.5,0,0,0,1.565-2.388ZM219.968,88.87A4.3,4.3,0,1,1,221.14,82.9,4.306,4.306,0,0,1,219.968,88.87Z" fill="#cce1f7"/>
              <path id="Path_6" data-name="Path 6" d="M463.1,114.24l.9-4.6-4.315-.846a10.532,10.532,0,0,0-.571-3.371l3.555-2.388-2.617-3.895-3.4,2.286a10.505,10.505,0,0,0-3.493-2.35l.847-4.316-4.605-.9-.872,4.447a10.466,10.466,0,0,0-2.8.546l-2.388-3.556-3.9,2.617,2.286,3.4a10.506,10.506,0,0,0-2.35,3.492l-3.771-.74-.9,4.605,3.9.766a10.469,10.469,0,0,0,.829,3.553l-3.4,2.286,2.617,3.895,3.556-2.388a10.505,10.505,0,0,0,3.43,1.993l-.853,4.341,4.605.9.924-4.706a10.447,10.447,0,0,0,2.981-.787l2.286,3.4,3.9-2.617-2.388-3.554a10.528,10.528,0,0,0,1.564-2.388ZM451.533,112.4a4.3,4.3,0,1,1,1.172-5.969A4.306,4.306,0,0,1,451.533,112.4Z" fill="#cce1f7"/>
              <path id="Path_7" data-name="Path 7" d="M69.425,171.462l.9-4.606-4.315-.846a10.531,10.531,0,0,0-.571-3.371L69,160.251l-2.617-3.9-3.4,2.286a10.505,10.505,0,0,0-3.493-2.35l.847-4.316-4.6-.9-.873,4.447a10.46,10.46,0,0,0-2.8.546l-2.389-3.556-3.9,2.617,2.286,3.4a10.485,10.485,0,0,0-2.35,3.493l-3.772-.741-.9,4.6,3.905.766a10.463,10.463,0,0,0,.829,3.553l-3.4,2.286,2.618,3.895L48.533,174a10.5,10.5,0,0,0,3.431,1.993l-.853,4.341,4.6.9.924-4.706a10.447,10.447,0,0,0,2.981-.787l2.286,3.4,3.9-2.618-2.389-3.554a10.5,10.5,0,0,0,1.565-2.388ZM57.86,169.617a4.3,4.3,0,1,1,1.172-5.969A4.305,4.305,0,0,1,57.86,169.617Z" fill="#cce1f7"/>
            </g>
          </g>
          <path id="Path_8" data-name="Path 8" d="M249.68,400.451c-76.285,0-142.976-3.328-179.169-8.291a3.094,3.094,0,0,0-1.267,6.041c24.7,7.046,59.666,7.536,82.006,9.942,38.51,4.148,94.5,3,98.43,16.42s4.32,27.628-34.93,25.628c-42.589-2.17-35.5-25.628-35.5-25.628-39.5,1.125-133.5-8.122-143.9-24.112-10.28-15.809,8.558-19.465,8.987-19.545l.006,0c15.911-8.027,101.783-14.16,205.335-14.16,114.862,0,207.977,7.545,207.977,16.853S364.542,400.451,249.68,400.451Z" fill="#cce1f7"/>
          <g id="Group_34" data-name="Group 34">
            <g id="Group_4" data-name="Group 4">
              <path id="Path_9" data-name="Path 9" d="M107.153,351.6C98,342.372,77.99,320.736,65.387,296.173c-18.086-35.252-36.222-32.1-39.781-19.64-9.2,32.229,45.006,67.256,67.484,80.194Z" fill="#3b73ab"/>
              <g id="Group_3" data-name="Group 3">
                <path id="Path_10" data-name="Path 10" d="M102.2,353.406C86.42,341.57,73.077,327.568,64.01,317a268.716,268.716,0,0,1-19.5-25.442.87.87,0,0,0-1.458.948,270.1,270.1,0,0,0,19.62,25.605c8.956,10.441,22.064,24.216,37.585,36Z" fill="#00528a"/>
              </g>
            </g>
            <g id="Group_6" data-name="Group 6">
              <path id="Path_11" data-name="Path 11" d="M104.885,339.2c-4.242-8.466-12.285-26.2-15.267-44.272-4.456-27-17.049-28.758-22.019-21.313-13.65,20.447,19.064,58.06,29.5,69.194Z" fill="#00528a"/>
              <g id="Group_5" data-name="Group 5">
                <path id="Path_12" data-name="Path 12" d="M101.92,340.57a171.481,171.481,0,0,1-17.6-32.237,185.423,185.423,0,0,1-7.457-20.848.6.6,0,0,0-1.16.316,186.7,186.7,0,0,0,7.5,20.98,172.866,172.866,0,0,0,17.611,32.3Z" fill="#01305a"/>
              </g>
            </g>
            <g id="Group_8" data-name="Group 8">
              <path id="Path_13" data-name="Path 13" d="M405.068,214.551c8.44-9.892,26.766-32.967,37.491-58.407,15.391-36.509,33.713-34.727,38.2-22.567,11.594,31.447-39.835,70.441-61.279,85.029Z" fill="#3b73ab"/>
              <g id="Group_7" data-name="Group 7">
                <path id="Path_14" data-name="Path 14" d="M410.14,215.978c14.85-12.986,27.106-27.95,35.354-39.166a268.662,268.662,0,0,0,17.539-26.833.87.87,0,0,1,1.526.836,270.367,270.367,0,0,1-17.645,27c-8.148,11.084-20.186,25.8-34.779,38.721Z" fill="#00528a"/>
              </g>
            </g>
            <g id="Group_12" data-name="Group 12">
              <path id="Path_15" data-name="Path 15" d="M406.4,202.01c3.6-8.76,10.285-27.048,11.9-45.293,2.417-27.26,14.843-29.955,20.358-22.9,15.146,19.365-14.655,59.325-24.225,71.211Z" fill="#00528a"/>
              <g id="Group_11" data-name="Group 11">
                <g id="Group_10" data-name="Group 10">
                  <g id="Group_9" data-name="Group 9">
                    <path id="Path_16" data-name="Path 16" d="M409.458,203.157A171.486,171.486,0,0,0,424.6,169.691a185.541,185.541,0,0,0,5.872-21.35.6.6,0,0,1,1.18.228,186.527,186.527,0,0,1-5.906,21.485A172.869,172.869,0,0,1,410.6,203.586Z" fill="#01305a"/>
                  </g>
                </g>
              </g>
            </g>
            <path id="Path_17" data-name="Path 17" d="M148.715,111.193c1.574-14.739.348-28.984-6.987-25.471s-4.769,27.991,5.214,44.134l2.083,6.3c-7.07-11.892-21.176-21.966-26.966-18.2-5.753,3.742,4.246,9.6,14.27,13.419,7.63,2.91,11.959,6.565,13.969,8.635l9.836,29.771c-11.249-18.8-33.531-34.678-42.692-28.719-9.129,5.937,6.737,15.225,22.642,21.292,12.02,4.584,18.88,10.335,22.1,13.632l1.961,5.936q1.624-.269,3.244-.555l-11.7-35.42a42.157,42.157,0,0,1,5.436-12.045c5.774-9.043,10.317-19.7,3.467-19.279-5.945.367-10.726,12.684-11.027,24.894l-4.048-12.25A61.23,61.23,0,0,1,148.715,111.193Z" fill="#00528a"/>
            <path id="Path_18" data-name="Path 18" d="M454.469,286.144c3.979-14.279,10.378-27.065,15.9-21.092s-5.9,27.774-21.14,39.091l-4.262,5.089c10.96-8.441,27.789-12.6,31.78-6.959,3.965,5.6-7.489,7.35-18.216,7.2-8.166-.113-13.538,1.685-16.17,2.867l-20.133,24.036c17.395-13.318,43.965-19.848,50.279-10.928,6.291,8.888-11.882,11.663-28.9,11.428-12.863-.177-21.361,2.634-25.571,4.51l-4.014,4.792q-1.412-.848-2.81-1.713l23.952-28.6a42.148,42.148,0,0,0-.605-13.2c-2.027-10.536-2.314-22.118,3.9-19.2,5.39,2.535,5.285,15.747,1.058,27.206l8.283-9.889A61.215,61.215,0,0,0,454.469,286.144Z" fill="#3b73ab"/>
            <g id="Group_18" data-name="Group 18">
              <g id="Group_14" data-name="Group 14">
                <g id="Group_13" data-name="Group 13">
                  <path id="Path_19" data-name="Path 19" d="M120.8,263.8h16.46c-8.894-1.47-30.945-10.936-32.911-29.919-2.491-24.044-11.052-23.743-25.479-26.258s-18.4,1.591-27.56-17.075-29.6-21.019-29.6-21.019,18.627,20.324,15.062,35.769,8.787,21.614,18.678,23.555,7.521,15.234,11.279,23.772c1.716,3.9,8.737,7.935,15.864,11.175Z" fill="#00528a"/>
                </g>
              </g>
              <g id="Group_17" data-name="Group 17">
                <g id="Group_16" data-name="Group 16">
                  <g id="Group_15" data-name="Group 15">
                    <path id="Path_20" data-name="Path 20" d="M85.147,240.128c.719,7.2,4.859,15.764,11.075,22.906.219.251.446.506.678.762h1.873c-.535-.564-1.043-1.121-1.515-1.664-5.947-6.831-10.065-15.315-10.748-22.14-1.085-10.866-9.482-18.271-27.228-24.009-10.3-3.329-13.554-15.9-13.584-16.032a.686.686,0,0,0-1.332.331c.136.547,3.459,13.44,14.493,17.007C76.014,222.834,84.123,229.879,85.147,240.128Z" fill="#01305a"/>
                  </g>
                </g>
              </g>
            </g>
            <g id="Group_23" data-name="Group 23">
              <g id="Group_20" data-name="Group 20">
                <g id="Group_19" data-name="Group 19">
                  <path id="Path_21" data-name="Path 21" d="M112.333,263.8h34.6l.029-.1a44.724,44.724,0,0,0,1.644-10.6c.411-12.111.617-42.523-7.211-50.312-9.84-9.79-29.563-13.617-26.961-28.388s.654-35.222-22.7-38.545-41.59-40.065-41.59-40.065S42.47,125.41,63.478,148.122s13.18,26.032,8.945,47.406-9.237,33.1,22.807,49.432A35.625,35.625,0,0,1,112.333,263.8Z" fill="#3b73ab"/>
                </g>
              </g>
              <g id="Group_22" data-name="Group 22">
                <g id="Group_21" data-name="Group 21">
                  <path id="Path_22" data-name="Path 22" d="M94.524,172.813c-1.539,27.709,4.246,43.332,18.749,50.657,9.109,4.6,18.682,14.864,24.981,26.778a76.119,76.119,0,0,1,5.583,13.548h2.13a77.911,77.911,0,0,0-5.908-14.5c-6.585-12.454-16.256-22.788-25.867-27.642-13.681-6.911-19.118-21.94-17.629-48.726C97.52,155.7,81.4,144.179,80.716,143.7a1.021,1.021,0,0,0-1.174,1.671C79.7,145.479,95.419,156.73,94.524,172.813Z" fill="#00528a"/>
                </g>
              </g>
            </g>
            <g id="Group_29" data-name="Group 29">
              <g id="Group_25" data-name="Group 25">
                <g id="Group_24" data-name="Group 24">
                  <path id="Path_23" data-name="Path 23" d="M314.158,208.941h16.856l17.09-11.133c4.2-6.6,7.882-13.822,7.192-18.023-1.511-9.205-10.753-19.049-3.525-26.074s14.211-18.936,2.793-29.932-6.9-38.192-6.9-38.192-15.839,13.126-13.325,33.766-3.057,19.37-13.773,29.351-18.053,14.4-7.016,35.908C317.671,192.649,316.86,201.354,314.158,208.941Z" fill="#00528a"/>
                </g>
              </g>
              <g id="Group_28" data-name="Group 28">
                <g id="Group_27" data-name="Group 27">
                  <g id="Group_26" data-name="Group 26">
                    <path id="Path_24" data-name="Path 24" d="M333.048,179.369c3.328,6.426,4.532,15.861,3.222,25.238-.046.33-.1.667-.151,1.009l-1.57,1.022c.141-.765.262-1.509.362-2.221,1.254-8.97.073-18.327-3.08-24.418-5.021-9.7-2.028-20.485,9.709-34.979,6.814-8.412,2.676-20.724,2.631-20.848a.686.686,0,0,1,1.3-.45c.185.533,4.438,13.15-2.86,22.161C331.26,159.894,328.311,170.222,333.048,179.369Z" fill="#01305a"/>
                  </g>
                </g>
              </g>
            </g>
            <g id="Group_33" data-name="Group 33">
              <g id="Group_30" data-name="Group 30">
                <path id="Path_25" data-name="Path 25" d="M377.631,208.941a36.113,36.113,0,0,1,6.719-4.407c32.044-16.333,27.042-28.058,22.807-49.432S395.094,130.409,416.1,107.7s13.329-52.343,13.329-52.343S411.192,92.1,387.841,95.418s-25.3,23.774-22.7,38.545-17.121,18.6-26.961,28.389c-7.117,7.081-7.593,32.863-7.312,46.589Z" fill="#3b73ab"/>
              </g>
              <g id="Group_32" data-name="Group 32">
                <g id="Group_31" data-name="Group 31">
                  <path id="Path_26" data-name="Path 26" d="M341.8,208.941c6.3-11.537,15.622-21.407,24.505-25.9,14.5-7.325,20.288-22.948,18.749-50.657-.895-16.083,14.82-27.334,14.982-27.443a1.021,1.021,0,0,0-1.174-1.672c-.686.481-16.805,12-15.847,29.227,1.489,26.786-3.949,41.815-17.629,48.727-9.611,4.853-19.282,15.187-25.867,27.641l-.039.074Z" fill="#00528a"/>
                </g>
              </g>
            </g>
          </g>
          <g id="Group_42" data-name="Group 42">
            <g id="Group_41" data-name="Group 41">
              <g id="Group_39" data-name="Group 39">
                <rect id="Rectangle_2" data-name="Rectangle 2" width="335.32" height="207.918" rx="13.504" transform="translate(84.082 154.872)" fill="#01305a"/>
                <path id="Path_27" data-name="Path 27" d="M404.507,177.573V340.088a8.658,8.658,0,0,1-8.657,8.66H107.637a8.625,8.625,0,0,1-5.352-1.852,8.818,8.818,0,0,1-1.088-1.02,8.608,8.608,0,0,1-2.22-5.788V177.573a8.662,8.662,0,0,1,8.66-8.66H395.85a8.6,8.6,0,0,1,4.38,1.19A8.7,8.7,0,0,1,403.2,173,8.6,8.6,0,0,1,404.507,177.573Z" fill="#fff"/>
                <g id="Group_38" data-name="Group 38">
                  <g id="Group_35" data-name="Group 35">
                    <path id="Path_28" data-name="Path 28" d="M203.846,290.728H192.037v15.239h-29.08V290.728h-46.1V271.68l37.715-54.6h30.731l-33.525,50.414h12.065V253.9h28.191v13.587h11.809Z" fill="#b9d780"/>
                  </g>
                  <g id="Group_36" data-name="Group 36">
                    <path id="Path_29" data-name="Path 29" d="M208.034,261.521c0-29.461,16.763-46.478,40.255-46.478s40.255,17.017,40.255,46.478S271.782,308,248.289,308,208.034,290.982,208.034,261.521Zm50.414,0c0-17.143-4.317-22.477-10.159-22.477s-10.159,5.334-10.159,22.477S242.448,284,248.289,284,258.448,278.665,258.448,261.521Z" fill="#b9d780"/>
                  </g>
                  <g id="Group_37" data-name="Group 37">
                    <path id="Path_30" data-name="Path 30" d="M382,290.728H370.192v15.239h-29.08V290.728h-46.1V271.68l37.715-54.6h30.731l-33.525,50.414H342V253.9h28.191v13.587H382Z" fill="#b9d780"/>
                  </g>
                </g>
              </g>
              <path id="Path_31" data-name="Path 31" d="M450.725,355.56v1.157a26.312,26.312,0,0,1-26.316,26.315H79.075A26.312,26.312,0,0,1,52.76,356.717V355.56Z" fill="#01305a"/>
              <path id="Path_32" data-name="Path 32" d="M207.139,355.56v.264c0,2.084,1.395,3.773,3.117,3.773H291.5c1.722,0,3.117-1.689,3.117-3.773v-.264Z" fill="#fafbfd" style="mix-blend-mode: screen;isolation: isolate"/>
              <g id="Group_40" data-name="Group 40">
                <path id="Path_33" data-name="Path 33" d="M404.506,177.573v9.588H98.978v-9.588a8.669,8.669,0,0,1,8.66-8.66H395.85a8.667,8.667,0,0,1,8.656,8.66Z" fill="#01305a" opacity="0.2"/>
                <rect id="Rectangle_3" data-name="Rectangle 3" width="163.55" height="4.848" rx="0.754" transform="translate(167.904 176.081)" fill="#fff"/>
                <path id="Path_34" data-name="Path 34" d="M128.85,178.5v1.8a.669.669,0,0,1-1,.58l-1.556-.9-1.556-.9a.669.669,0,0,1,0-1.159l1.556-.9,1.556-.9a.669.669,0,0,1,1,.58Z" fill="#01305a"/>
                <path id="Path_35" data-name="Path 35" d="M136.947,178.5v1.8a.67.67,0,0,0,1,.58l1.556-.9,1.556-.9a.669.669,0,0,0,0-1.159l-1.556-.9-1.556-.9a.67.67,0,0,0-1,.58Z" fill="#01305a"/>
              </g>
              <path id="Path_36" data-name="Path 36" d="M402.945,172.618H100.54a8.637,8.637,0,0,1,7.1-3.705H395.85A8.625,8.625,0,0,1,402.945,172.618Z" fill="#01305a" opacity="0.2"/>
              <path id="Path_37" data-name="Path 37" d="M341.961,334.867H157.4a6.534,6.534,0,0,1-6.534-6.534h0A6.534,6.534,0,0,1,157.4,321.8H341.961a6.534,6.534,0,0,1,6.534,6.534h0A6.534,6.534,0,0,1,341.961,334.867Z" fill="#01305a" opacity="0.1"/>
            </g>
          </g>
          <g id="Group_104" data-name="Group 104">
            <g id="Group_43" data-name="Group 43">
              <path id="Path_38" data-name="Path 38" d="M367.125,303.691a81.679,81.679,0,0,1-4.138,7.092c-9.907,15-17.275,11.785-21.24,7.158a20.811,20.811,0,0,1-3.137-4.953,21.817,21.817,0,0,1-1.73-5.852l1.84.427c2.18,1,5.792,2.38,8.472,1.963a5.013,5.013,0,0,0,.975-.253c2.4-.912,5.673-5.635,7.885-9.23,1.45-2.355,2.448-4.227,2.448-4.227Z" fill="#ffc0ad"/>
              <path id="Path_39" data-name="Path 39" d="M367.125,303.691a81.679,81.679,0,0,1-4.138,7.092,51.668,51.668,0,0,1-6.935-10.74c1.45-2.355,2.448-4.227,2.448-4.227Z" fill="#fda084"/>
              <path id="Path_40" data-name="Path 40" d="M349.332,310.023s-2,6.126-10.722,2.965a21.817,21.817,0,0,1-1.73-5.852l1.84.427c2.18,1,5.792,2.38,8.472,1.963Z" fill="#fda084"/>
            </g>
            <g id="Group_44" data-name="Group 44">
              <path id="Path_41" data-name="Path 41" d="M430.625,325.651c-2,11.54-11.383,3.067-12.193-5.945a58.723,58.723,0,0,1-.2-6.09c.03-1.86.127-3.655.255-5.283.025-.315.05-.622.077-.922.348-3.923.84-6.675.84-6.675l6.135-7.545s.715,2.115,1.63,5.37c.843,3.007,1.855,6.987,2.623,11.172.232,1.265.442,2.548.617,3.828A41.257,41.257,0,0,1,430.625,325.651Z" fill="#ffc0ad"/>
              <path id="Path_42" data-name="Path 42" d="M427.167,298.561c-1.82,3.347-4.817,7.785-8.682,9.772.025-.315.05-.622.077-.922.348-3.923.84-6.675.84-6.675l6.135-7.545S426.252,295.306,427.167,298.561Z" fill="#fda084"/>
              <path id="Path_43" data-name="Path 43" d="M430.407,313.561c-2.22,1.345-9.5.712-12.177.055.035-2.22.167-4.345.332-6.2l11.228,2.322C430.022,311,430.232,312.281,430.407,313.561Z" fill="#fda084"/>
            </g>
            <path id="Path_44" data-name="Path 44" d="M365.865,274.973s-8.879,15.68-10.339,20.988c0,0,6.066,10.139,11.571,11.263l2.039-6.915S369.352,278.671,365.865,274.973Z" fill="#3b73ab"/>
            <g id="Group_50" data-name="Group 50">
              <path id="Path_45" data-name="Path 45" d="M385.369,266.918l-19.5,8.055,8.629,66.839s26.847,3.77,40.729,0V274.973l-18.961-8.478Z" fill="#3b73ab"/>
              <g id="Group_49" data-name="Group 49">
                <g id="Group_45" data-name="Group 45">
                  <path id="Path_46" data-name="Path 46" d="M381.388,303.344a31.517,31.517,0,0,0,14.267,8.464.42.42,0,0,0,.531-.354v-.008a.418.418,0,0,0-.3-.45,30.694,30.694,0,0,1-13.9-8.245.416.416,0,0,0-.709.226l0,.01A.418.418,0,0,0,381.388,303.344Z" fill="#00528a"/>
                </g>
                <g id="Group_46" data-name="Group 46">
                  <path id="Path_47" data-name="Path 47" d="M381.55,296.984V297a.384.384,0,0,0,.051.193c.216.374.462.765.745,1.167a16.776,16.776,0,0,0,9.6,6.5.383.383,0,0,0,.2-.74,15.793,15.793,0,0,1-9.879-7.336A.385.385,0,0,0,381.55,296.984Z" fill="#00528a"/>
                </g>
                <g id="Group_48" data-name="Group 48">
                  <g id="Group_47" data-name="Group 47">
                    <path id="Path_48" data-name="Path 48" d="M382.249,279.6v.008a.385.385,0,0,0,.453.353,27.249,27.249,0,0,0,10.745-4.753,26.1,26.1,0,0,0,5.209-4.913.383.383,0,0,0-.615-.458,27.569,27.569,0,0,1-15.485,9.368A.379.379,0,0,0,382.249,279.6Z" fill="#00528a"/>
                  </g>
                </g>
              </g>
            </g>
            <g id="Group_65" data-name="Group 65">
              <g id="Group_60" data-name="Group 60">
                <g id="Group_59" data-name="Group 59">
                  <path id="Path_49" data-name="Path 49" d="M352.29,384.344l2.092-10.762h-7.147l-1.747,10.161A8.407,8.407,0,0,0,352.29,384.344Z" fill="#ffc0ad"/>
                  <path id="Path_50" data-name="Path 50" d="M347.394,384.234s-1.588-2.082-2.829-1.978-10.735,7.831-14.011,8.5-2.61,3.077-1.994,4.305,26.18-.765,26.18-.765.615-7.623-.247-9.943S349.967,384.756,347.394,384.234Z" fill="#00528a"/>
                  <g id="Group_58" data-name="Group 58">
                    <g id="Group_53" data-name="Group 53">
                      <g id="Group_52" data-name="Group 52">
                        <g id="Group_51" data-name="Group 51">
                          <path id="Path_51" data-name="Path 51" d="M342.159,389.611a.46.46,0,0,0,.524-.674,7.086,7.086,0,0,0-2.423-2.468,3.172,3.172,0,0,0-3.252.189.46.46,0,0,0,.557.732,2.26,2.26,0,0,1,2.291-.1,6.265,6.265,0,0,1,2.033,2.106A.46.46,0,0,0,342.159,389.611Z" fill="#fff"/>
                        </g>
                      </g>
                    </g>
                    <g id="Group_56" data-name="Group 56">
                      <g id="Group_55" data-name="Group 55">
                        <g id="Group_54" data-name="Group 54">
                          <path id="Path_52" data-name="Path 52" d="M343.515,388.3a.454.454,0,0,0,.358-.045.459.459,0,0,0,.165-.629,7.078,7.078,0,0,0-2.422-2.468,3.17,3.17,0,0,0-3.252.189.46.46,0,0,0,.557.732,2.263,2.263,0,0,1,2.291-.1,6.232,6.232,0,0,1,2.032,2.107A.46.46,0,0,0,343.515,388.3Z" fill="#fff"/>
                        </g>
                      </g>
                    </g>
                    <g id="Group_57" data-name="Group 57">
                      <path id="Path_53" data-name="Path 53" d="M340.313,390.683a.46.46,0,0,0,.524-.674,7.076,7.076,0,0,0-2.423-2.468,3.167,3.167,0,0,0-3.252.189.46.46,0,0,0,.557.732,2.261,2.261,0,0,1,2.291-.1,6.22,6.22,0,0,1,2.033,2.106A.46.46,0,0,0,340.313,390.683Z" fill="#fff"/>
                    </g>
                  </g>
                </g>
              </g>
              <g id="Group_63" data-name="Group 63">
                <g id="Group_62" data-name="Group 62">
                  <g id="Group_61" data-name="Group 61">
                    <path id="Path_54" data-name="Path 54" d="M384.722,335.109s-12.233-30.373-19.836-29.175c-11.772,1.855-19.646,38.01-18.682,71.736l8.078.46s9.041-31.77,10.662-40.1c0,0,6.231,21.624,20.264,18.614C395.6,354.418,388.826,343.784,384.722,335.109Z" fill="#b9d780"/>
                  </g>
                </g>
              </g>
              <g id="Group_64" data-name="Group 64">
                <path id="Path_55" data-name="Path 55" d="M353.324,376.739l-.995-.18c.022-.118,2.173-11.943,4.777-23.89,5.313-24.372,7.309-25.513,7.966-25.888a1.375,1.375,0,0,1,1.278-.109c1.333.58,2,3.424,3.012,7.729,1.634,6.959,3.873,16.488,10.052,20.479l-.548.849c-6.522-4.212-8.814-13.971-10.488-21.1-.8-3.423-1.564-6.656-2.431-7.034-.05-.022-.153-.067-.374.06C362.839,329.222,356.75,357.867,353.324,376.739Z" fill="#fafbfd"/>
              </g>
              <path id="Path_56" data-name="Path 56" d="M345.4,375.2l9.9.829.19.016-.543,3.281-9.732-.683Z" fill="#fafbfd"/>
            </g>
            <g id="Group_76" data-name="Group 76">
              <g id="Group_75" data-name="Group 75">
                <path id="Path_57" data-name="Path 57" d="M381.592,356.8s14.222,2.732,33.079-.662a34.948,34.948,0,0,0-10.826-19.346l-25.432,1.837C376.812,344.63,377.975,350.689,381.592,356.8Z" fill="#b9d780"/>
                <g id="Group_73" data-name="Group 73">
                  <g id="Group_72" data-name="Group 72">
                    <path id="Path_58" data-name="Path 58" d="M377.535,381.937a30.327,30.327,0,0,0-4.289-.681c-.919.06-6.778,7.23-8.837,7.729-3.732.9-3.475,6.784-1.17,6.974,6.665.549,17.878-2.757,17.878-2.757s.708-7.59.148-9.938S379.418,382.55,377.535,381.937Z" fill="#00528a"/>
                    <path id="Path_59" data-name="Path 59" d="M379.515,382.449l2.478-9.669h-7.142l-1.6,9.329S375.58,383.712,379.515,382.449Z" fill="#ffc0ad"/>
                    <g id="Group_71" data-name="Group 71">
                      <g id="Group_68" data-name="Group 68">
                        <g id="Group_67" data-name="Group 67">
                          <g id="Group_66" data-name="Group 66">
                            <path id="Path_60" data-name="Path 60" d="M372.334,388.621a.459.459,0,0,0,.449-.725,7.073,7.073,0,0,0-2.67-2.193,3.164,3.164,0,0,0-3.211.534.459.459,0,0,0,.631.667,2.262,2.262,0,0,1,2.266-.338,6.259,6.259,0,0,1,2.245,1.876A.454.454,0,0,0,372.334,388.621Z" fill="#fff"/>
                          </g>
                        </g>
                      </g>
                      <g id="Group_69" data-name="Group 69">
                        <path id="Path_61" data-name="Path 61" d="M373.542,387.175a.459.459,0,0,0,.448-.725,7.056,7.056,0,0,0-2.669-2.194,3.162,3.162,0,0,0-3.211.534.459.459,0,1,0,.631.667,2.262,2.262,0,0,1,2.266-.338,6.243,6.243,0,0,1,2.244,1.876A.455.455,0,0,0,373.542,387.175Z" fill="#fff"/>
                      </g>
                      <g id="Group_70" data-name="Group 70">
                        <path id="Path_62" data-name="Path 62" d="M370.615,389.883a.459.459,0,0,0,.448-.725,7.073,7.073,0,0,0-2.67-2.194,3.167,3.167,0,0,0-3.211.534.46.46,0,1,0,.632.668,2.257,2.257,0,0,1,2.265-.338,6.22,6.22,0,0,1,2.245,1.876A.453.453,0,0,0,370.615,389.883Z" fill="#fff"/>
                      </g>
                    </g>
                  </g>
                </g>
                <path id="Path_63" data-name="Path 63" d="M412.934,356.645a11.92,11.92,0,0,1-5.032.037,11.524,11.524,0,0,1-1.483-.421c-9.467-3.361-13.75-18.23-13.75-18.23-1.621,8.328-11,40.078-11,40.078l-1.462-.192-1.008-.135-5.534-.728c-1.089-32.65,7.172-69.266,18.94-71.12,7.6-1.2,19.837,29.175,19.837,29.175C416.55,343.784,423.32,354.417,412.934,356.645Z" fill="#b9d780"/>
                <g id="Group_74" data-name="Group 74">
                  <path id="Path_64" data-name="Path 64" d="M407.9,356.682a11.524,11.524,0,0,1-1.483-.421c-3.464-5.578-5.271-13.38-6.727-19.662-1.156-5-2.248-9.716-3.683-10.525a.8.8,0,0,0-.684-.057c-1.22.4-4.1,4.442-9.622,27.025-2.636,10.764-4.82,21.492-5.493,24.875-.139.688-.216,1.075-.22,1.1l-.99-.193c0-.02.074-.384.2-1.038.664-3.323,2.858-14.131,5.517-24.979,6.491-26.5,9.349-27.44,10.289-27.75a1.813,1.813,0,0,1,1.5.141c1.823,1.028,2.811,5.285,4.173,11.176C402.2,342.952,404.121,351.236,407.9,356.682Z" fill="#fafbfd"/>
                </g>
                <path id="Path_65" data-name="Path 65" d="M373.01,374.752l9.776,1.785.188.034-.859,3.213-9.619-1.623Z" fill="#fafbfd"/>
              </g>
            </g>
            <path id="Path_66" data-name="Path 66" d="M415.223,274.973l12.649,18.321s-5.617,10.589-11.122,11.7c0,0-5.73-10.012-6.4-15.123S413.247,275.413,415.223,274.973Z" fill="#3b73ab"/>
            <g id="Group_88" data-name="Group 88">
              <path id="Path_67" data-name="Path 67" d="M378.954,246.625c0,7.11,4.378,12.009,11.487,12.009s12.065-5.268,12.065-12.377-4.21-12.5-11.32-12.5C382.659,233.761,378.954,239.515,378.954,246.625Z" fill="#01305a"/>
              <path id="Path_68" data-name="Path 68" d="M379.375,242.7s-5.3-5.241-3.318-7.712,4.564-.113,5.35-2.471,1.1-5.393,4.311-4.157,3.365,3.258,6.436,1.46,2.4,1.236,5.093,2.584,4.579,1.123,4.143,3.707,2.587,3.119,1.349,5.974-2.684,1.415-2.684,1.415Z" fill="#01305a"/>
              <g id="Group_81" data-name="Group 81">
                <path id="Path_69" data-name="Path 69" d="M380.552,249.686s-1.975-2.634-3.444-.456.607,8.611,4.2,7.04Z" fill="#fda084"/>
                <g id="Group_77" data-name="Group 77">
                  <path id="Path_70" data-name="Path 70" d="M380.526,254.283a.3.3,0,0,1-.292-.222,4.7,4.7,0,0,0-2.636-2.8.3.3,0,0,1,.216-.569,5.239,5.239,0,0,1,3.005,3.2.3.3,0,0,1-.21.374A.3.3,0,0,1,380.526,254.283Z" fill="#ff7972"/>
                </g>
                <g id="Group_80" data-name="Group 80">
                  <g id="Group_79" data-name="Group 79">
                    <g id="Group_78" data-name="Group 78">
                      <path id="Path_71" data-name="Path 71" d="M378.45,253.282a.3.3,0,0,1-.165-.048.3.3,0,0,1-.091-.42,2.775,2.775,0,0,1,1.141-.92.3.3,0,0,1,.248.555,2.208,2.208,0,0,0-.878.694A.3.3,0,0,1,378.45,253.282Z" fill="#ff7972"/>
                    </g>
                  </g>
                </g>
              </g>
              <g id="Group_86" data-name="Group 86">
                <path id="Path_72" data-name="Path 72" d="M400.908,249.686s1.976-2.634,3.444-.456-.607,8.611-4.2,7.04Z" fill="#fda084"/>
                <g id="Group_82" data-name="Group 82">
                  <path id="Path_73" data-name="Path 73" d="M400.934,254.283a.3.3,0,0,0,.292-.222,4.7,4.7,0,0,1,2.636-2.8.3.3,0,0,0-.216-.569,5.239,5.239,0,0,0-3.005,3.2.3.3,0,0,0,.211.374A.29.29,0,0,0,400.934,254.283Z" fill="#ff7972"/>
                </g>
                <g id="Group_85" data-name="Group 85">
                  <g id="Group_84" data-name="Group 84">
                    <g id="Group_83" data-name="Group 83">
                      <path id="Path_74" data-name="Path 74" d="M403.011,253.282a.3.3,0,0,0,.164-.048.3.3,0,0,0,.091-.42,2.767,2.767,0,0,0-1.141-.92.3.3,0,0,0-.248.555,2.208,2.208,0,0,1,.878.694A.3.3,0,0,0,403.011,253.282Z" fill="#ff7972"/>
                    </g>
                  </g>
                </g>
              </g>
              <path id="Path_75" data-name="Path 75" d="M395.592,261.726v6.4s-1.907,3.258-4.487,3.48-4.868-2.8-4.868-2.8v-6.622Z" fill="#ffc0ad"/>
              <path id="Path_76" data-name="Path 76" d="M395.592,261.726v2.839c-1.731,1.921-4.805,2.4-9.355,1.729v-4.118Z" fill="#fda084"/>
              <path id="Path_77" data-name="Path 77" d="M379.495,249.483a38.689,38.689,0,0,0,.519,4.211c.858,4.716,2.79,9.353,6.953,10.841,9.425,3.366,12.794-4.718,14.14-9.431.148-.522.281-1.105.4-1.727.214-1.123.38-2.376.51-3.637.154-1.531.256-3.08.32-4.441a6.655,6.655,0,0,0-4.263-6.533c-3.864-1.485-9.736-2.66-15.3.495a6.675,6.675,0,0,0-3.391,5.682C379.359,246.226,379.377,247.792,379.495,249.483Z" fill="#ffc0ad"/>
              <path id="Path_78" data-name="Path 78" d="M379.495,249.483a38.689,38.689,0,0,0,.519,4.211c.858,4.716,2.79,9.353,6.953,10.841,9.425,3.366,12.794-4.718,14.14-9.431.148-.522.281-1.105.4-1.727.214-1.123.38-2.376.51-3.637h-1.377c-.287.878-1.82,6.224-2.318,6.985-1.072-2.569-6.512-.863-6.512-.863l-.027.009a3.343,3.343,0,0,1-2.053-.009s-5.377-1.781-6.49.67c-.493-.764-2.259-6.213-2.576-6.792Zm11.261,7.541c6.152-.83,5.183,2.481,5.183,2.481a10.308,10.308,0,0,1-1.724,1.314,7.116,7.116,0,0,1-3.625.987c-.942-.042-1.2.154-3.59-1.138a6.025,6.025,0,0,1-1.265-.96h0v0C385.629,259.059,384.588,255.964,390.756,257.024Z" fill="#01305a"/>
              <path id="Path_79" data-name="Path 79" d="M386.688,250.521c0,.683-.352,1.236-.786,1.236s-.786-.553-.786-1.236.352-1.236.786-1.236S386.688,249.838,386.688,250.521Z" fill="#01305a"/>
              <path id="Path_80" data-name="Path 80" d="M395.953,250.5c0,.683-.352,1.236-.786,1.236s-.786-.553-.786-1.236.352-1.237.786-1.237S395.953,249.813,395.953,250.5Z" fill="#01305a"/>
              <path id="Path_81" data-name="Path 81" d="M382.517,247.5s2.58-1.958,5.083-1.617l.124,1.3s-3.355.639-4.819,1.77A2.235,2.235,0,0,1,382.517,247.5Z" fill="#01305a"/>
              <path id="Path_82" data-name="Path 82" d="M398.593,247.5s-2.58-1.958-5.083-1.617l-.124,1.3s3.355.639,4.82,1.77A2.24,2.24,0,0,0,398.593,247.5Z" fill="#01305a"/>
              <g id="Group_87" data-name="Group 87">
                <path id="Path_83" data-name="Path 83" d="M390.836,255.306a3.256,3.256,0,0,0,1.1-.231.3.3,0,0,0-.23-.563,1.826,1.826,0,0,1-1.219.115.329.329,0,0,1-.149-.283,45.961,45.961,0,0,1,.183-4.654.3.3,0,1,0-.605-.05,44.684,44.684,0,0,0-.183,4.767.928.928,0,0,0,.442.742A1.285,1.285,0,0,0,390.836,255.306Z" fill="#fda084"/>
              </g>
              <path id="Path_84" data-name="Path 84" d="M390.425,257.533a1.774,1.774,0,0,0-.142,3.542c.085,0,.171.007.26.007s.172,0,.255-.006a1.774,1.774,0,0,0-.129-3.543Z" fill="#fff"/>
              <path id="Path_85" data-name="Path 85" d="M402.015,249.74h-1.377c.152-1.383.37-3.818-.765-4.167-3.589-1.1,1.062-3.638-.558-4.9s-5.652-.724-8.455-.815a60.068,60.068,0,0,0-8.456.2c-1.1.252-.5,2.083-.094,3.5s-1.352,2.985-1.647,4.453a6.481,6.481,0,0,0,0,1.725h-1.148c-.136-1.786-.157-3.449-.132-4.8a6.676,6.676,0,0,1,3.388-5.682c5.564-3.155,11.436-1.979,15.3-.493a6.659,6.659,0,0,1,4.264,6.531C402.272,246.66,402.171,248.209,402.015,249.74Z" fill="#01305a"/>
            </g>
            <g id="Group_90" data-name="Group 90">
              <path id="Path_86" data-name="Path 86" d="M464.807,356.088c-1.707,6.665-6.485,11.72-13.812,14.62a35,35,0,0,1-5.418,1.638c.058-.075.113-.15.168-.225a26.058,26.058,0,0,0,2.877-5.083c4.835-1.755,10.328-5.215,12.07-12.005,1.673-6.527-1.025-16.292-6.877-24.875-4.638-6.8-15.165-18.55-33.575-20.825-16.073-1.987-26.515.455-35.725,2.61-7.83,1.83-15.225,3.558-24.275,1.975a107.961,107.961,0,0,1-16.248-4.342c-8.28-2.74-13.75-4.548-22.437-.99-14.65,6-21.183,30.882-21.248,31.132l-4.117-1.052c.285-1.108,7.122-27.2,23.755-34.013,10.14-4.155,16.867-1.93,25.382.888a104.223,104.223,0,0,0,15.645,4.19c8.2,1.435,14.86-.123,22.573-1.928,9.557-2.235,20.392-4.767,37.215-2.687a50.4,50.4,0,0,1,21.77,8.015,54.313,54.313,0,0,1,14.8,14.632C463.935,337.458,466.8,348.311,464.807,356.088Z" fill="#00528a"/>
              <g id="Group_89" data-name="Group 89">
                <path id="Path_87" data-name="Path 87" d="M259.966,379.019l9.534-30.135A24.376,24.376,0,0,1,300.093,333h0A24.376,24.376,0,0,1,315.98,363.59l-9.534,30.135Z" fill="#b9d780"/>
              </g>
            </g>
            <g id="Group_92" data-name="Group 92">
              <g id="Group_91" data-name="Group 91">
                <path id="Path_88" data-name="Path 88" d="M334.777,307.619a34.74,34.74,0,0,1,2.474-4.457c.838-1.3,2.786-1.935,3-.377.168,1.229-.712,2.158-.89,3.359,0,0,.431-.684,1.391-2.457.869-1.605,2.058-1.484,2.235-.27.167,1.148-.168,1.1-.453,1.97-.379,1.155-.916,2.6-.916,2.6a11.314,11.314,0,0,1,1.831-3.59c.649-.878,1.3-1.852,2.255-.491.482.683-.154,2.542-.67,4.529,0,0,1.035-2.663,2.367-3.348,1.053-.541,1.593-.066,1.184,1.4a32.789,32.789,0,0,1-1.262,3.535c-.4,1.121-1.869,2.724-3.034,2.353s-1.417-1.185-2.211-1.242-2.066.014-2.606-.476a2.8,2.8,0,0,0-2.022-.633C336.546,309.991,334.726,308.822,334.777,307.619Z" fill="#ffc0ad"/>
              </g>
            </g>
            <g id="Group_93" data-name="Group 93">
              <path id="Path_89" data-name="Path 89" d="M417.29,309.465a34.655,34.655,0,0,1,1.758-4.784c.628-1.412,2.217-2.427,2.667-.921.356,1.189-.133,2.329-.124,3.542,0,0,.321-.741,1-2.642.611-1.718,1.8-1.782,2.167-.61.342,1.108,0,1.114-.145,2.017-.2,1.2-.505,2.705-.505,2.705a11.285,11.285,0,0,1,1.257-3.829c.505-.968.994-2.03,2.152-.833.581.6.239,2.535.035,4.578,0,0,.241-2.442,1.451-3.323.958-.7,1.937-.659,1.759.854a32.729,32.729,0,0,1-.7,3.687c-.223,1.17-1.427,2.98-2.635,2.793s-1.582-.953-2.376-.887-2.039.332-2.648-.069a2.8,2.8,0,0,0-2.1-.315C419.4,311.537,417.424,310.662,417.29,309.465Z" fill="#ffc0ad"/>
            </g>
            <g id="Group_103" data-name="Group 103">
              <g id="Group_100" data-name="Group 100">
                <g id="Group_94" data-name="Group 94">
                  <path id="Path_90" data-name="Path 90" d="M255.25,408.143a3,3,0,0,1-3,3H240.3v-6h11.95A3,3,0,0,1,255.25,408.143Z" fill="#00528a"/>
                </g>
                <g id="Group_95" data-name="Group 95">
                  <path id="Path_91" data-name="Path 91" d="M255.25,429.476a3,3,0,0,1-3,3H240.3v-6h11.95A3,3,0,0,1,255.25,429.476Z" fill="#00528a"/>
                </g>
                <g id="Group_97" data-name="Group 97">
                  <g id="Group_96" data-name="Group 96">
                    <rect id="Rectangle_4" data-name="Rectangle 4" width="5.45" height="6" transform="translate(240.3 405.143)" fill="#01305a"/>
                  </g>
                </g>
                <g id="Group_99" data-name="Group 99">
                  <g id="Group_98" data-name="Group 98">
                    <rect id="Rectangle_5" data-name="Rectangle 5" width="5.45" height="6" transform="translate(240.3 426.476)" fill="#01305a"/>
                  </g>
                </g>
              </g>
              <g id="Group_101" data-name="Group 101">
                <path id="Path_92" data-name="Path 92" d="M192.875,415.3l-.165,4.748c-49.533-1.738-87.948-5.35-114.173-10.738-22.49-4.617-36.575-10.555-43.06-18.147a16.536,16.536,0,0,1-4.122-13.183c1-8.167,8.26-14.2,21.607-17.972a25.9,25.9,0,0,0,1.02,4.655c-8.96,2.582-17.047,6.855-17.912,13.9a11.8,11.8,0,0,0,3.02,9.518c5.69,6.665,19.285,12.242,40.4,16.58C105.46,409.991,143.607,413.571,192.875,415.3Z" fill="#00528a"/>
              </g>
              <g id="Group_102" data-name="Group 102">
                <path id="Path_93" data-name="Path 93" d="M240.3,443.184H208.693a24.375,24.375,0,0,1-24.375-24.375h0a24.375,24.375,0,0,1,24.375-24.375H240.3Z" fill="#b9d780"/>
              </g>
            </g>
          </g>
          <g id="Group_146" data-name="Group 146">
            <g id="Group_108" data-name="Group 108">
              <g id="Group_105" data-name="Group 105">
                <path id="Path_94" data-name="Path 94" d="M457.126,227.954v16.168a3.872,3.872,0,0,1-3.871,3.871H423.9l-8.862,3.179a1.127,1.127,0,0,1-1.432-1.468l3.352-8.657V227.954a3.873,3.873,0,0,1,3.873-3.871h32.425A3.872,3.872,0,0,1,457.126,227.954Z" fill="#b9d780"/>
              </g>
              <g id="Group_107" data-name="Group 107" style="mix-blend-mode: screen;isolation: isolate">
                <g id="Group_106" data-name="Group 106">
                  <circle id="Ellipse_1" data-name="Ellipse 1" cx="2.8" cy="2.8" r="2.8" transform="translate(426.023 233.697)" fill="#b9d780"/>
                  <circle id="Ellipse_2" data-name="Ellipse 2" cx="2.8" cy="2.8" r="2.8" transform="translate(434.887 233.697)" fill="#b9d780"/>
                  <circle id="Ellipse_3" data-name="Ellipse 3" cx="2.8" cy="2.8" r="2.8" transform="translate(443.752 233.697)" fill="#b9d780"/>
                </g>
              </g>
            </g>
            <g id="Group_126" data-name="Group 126">
              <g id="Group_109" data-name="Group 109">
                <path id="Path_95" data-name="Path 95" d="M308.874,129.553a6.611,6.611,0,1,1,6.611,6.61A6.619,6.619,0,0,1,308.874,129.553Zm2.074,0a4.536,4.536,0,1,0,4.537-4.537A4.542,4.542,0,0,0,310.948,129.553Z" fill="#b9d780"/>
              </g>
              <g id="Group_110" data-name="Group 110">
                <path id="Path_96" data-name="Path 96" d="M286.776,101.236a6.611,6.611,0,1,1,6.61,6.611A6.617,6.617,0,0,1,286.776,101.236Zm2.074,0a4.536,4.536,0,1,0,4.536-4.537A4.542,4.542,0,0,0,288.85,101.236Z" fill="#b9d780"/>
              </g>
              <g id="Group_117" data-name="Group 117">
                <g id="Group_113" data-name="Group 113">
                  <g id="Group_111" data-name="Group 111">
                    <path id="Path_97" data-name="Path 97" d="M288.85,132.876a1.036,1.036,0,0,0,1.036-1.037v-4.573a1.036,1.036,0,1,0-2.073,0v4.573A1.037,1.037,0,0,0,288.85,132.876Z" fill="#3b73ab"/>
                  </g>
                  <g id="Group_112" data-name="Group 112">
                    <path id="Path_98" data-name="Path 98" d="M288.85,140.878a1.036,1.036,0,0,0,1.036-1.036v-4.573a1.036,1.036,0,1,0-2.073,0v4.573A1.036,1.036,0,0,0,288.85,140.878Z" fill="#3b73ab"/>
                  </g>
                </g>
                <g id="Group_116" data-name="Group 116">
                  <g id="Group_114" data-name="Group 114">
                    <path id="Path_99" data-name="Path 99" d="M282.431,134.591h4.108a1.037,1.037,0,0,0,0-2.074h-4.108a1.037,1.037,0,0,0,0,2.074Z" fill="#3b73ab"/>
                  </g>
                  <g id="Group_115" data-name="Group 115">
                    <path id="Path_100" data-name="Path 100" d="M291.16,134.591h4.108a1.037,1.037,0,0,0,0-2.074H291.16a1.037,1.037,0,1,0,0,2.074Z" fill="#3b73ab"/>
                  </g>
                </g>
              </g>
              <g id="Group_125" data-name="Group 125">
                <g id="Group_124" data-name="Group 124">
                  <g id="Group_120" data-name="Group 120">
                    <g id="Group_118" data-name="Group 118">
                      <path id="Path_101" data-name="Path 101" d="M316.759,102.409a1.037,1.037,0,0,0,1.037-1.037V96.8a1.037,1.037,0,1,0-2.074,0v4.573A1.037,1.037,0,0,0,316.759,102.409Z" fill="#00528a"/>
                    </g>
                    <g id="Group_119" data-name="Group 119">
                      <path id="Path_102" data-name="Path 102" d="M316.759,110.411a1.037,1.037,0,0,0,1.037-1.037V104.8a1.037,1.037,0,1,0-2.074,0v4.572A1.037,1.037,0,0,0,316.759,110.411Z" fill="#00528a"/>
                    </g>
                  </g>
                  <g id="Group_123" data-name="Group 123">
                    <g id="Group_121" data-name="Group 121">
                      <path id="Path_103" data-name="Path 103" d="M310.34,104.124h4.108a1.037,1.037,0,0,0,0-2.074H310.34a1.037,1.037,0,0,0,0,2.074Z" fill="#00528a"/>
                    </g>
                    <g id="Group_122" data-name="Group 122">
                      <path id="Path_104" data-name="Path 104" d="M319.07,104.124h4.107a1.037,1.037,0,0,0,0-2.074H319.07a1.037,1.037,0,1,0,0,2.074Z" fill="#00528a"/>
                    </g>
                  </g>
                </g>
              </g>
            </g>
            <g id="Group_145" data-name="Group 145">
              <g id="Group_128" data-name="Group 128">
                <g id="Group_127" data-name="Group 127">
                  <path id="Path_105" data-name="Path 105" d="M117.789,84.261a6.61,6.61,0,1,1,6.61,6.61A6.619,6.619,0,0,1,117.789,84.261Zm2.074,0a4.537,4.537,0,1,0,4.536-4.537A4.541,4.541,0,0,0,119.863,84.261Z" fill="#b9d780"/>
                </g>
              </g>
              <g id="Group_129" data-name="Group 129">
                <path id="Path_106" data-name="Path 106" d="M92.368,96.7a6.611,6.611,0,1,1,6.61,6.61A6.618,6.618,0,0,1,92.368,96.7Zm2.074,0a4.536,4.536,0,1,0,4.536-4.537A4.541,4.541,0,0,0,94.442,96.7Z" fill="#3b73ab"/>
              </g>
              <g id="Group_136" data-name="Group 136">
                <g id="Group_132" data-name="Group 132">
                  <g id="Group_130" data-name="Group 130">
                    <path id="Path_107" data-name="Path 107" d="M88.564,114.494a1.037,1.037,0,0,0,1.037-1.037v-4.573a1.037,1.037,0,1,0-2.074,0v4.573A1.037,1.037,0,0,0,88.564,114.494Z" fill="#b9d780"/>
                  </g>
                  <g id="Group_131" data-name="Group 131">
                    <path id="Path_108" data-name="Path 108" d="M88.564,122.5a1.037,1.037,0,0,0,1.037-1.037v-4.573a1.037,1.037,0,0,0-2.074,0v4.573A1.037,1.037,0,0,0,88.564,122.5Z" fill="#b9d780"/>
                  </g>
                </g>
                <g id="Group_135" data-name="Group 135">
                  <g id="Group_133" data-name="Group 133">
                    <path id="Path_109" data-name="Path 109" d="M82.145,116.209h4.108a1.037,1.037,0,1,0,0-2.074H82.145a1.037,1.037,0,0,0,0,2.074Z" fill="#b9d780"/>
                  </g>
                  <g id="Group_134" data-name="Group 134">
                    <path id="Path_110" data-name="Path 110" d="M90.875,116.209h4.108a1.037,1.037,0,0,0,0-2.074H90.875a1.037,1.037,0,1,0,0,2.074Z" fill="#b9d780"/>
                  </g>
                </g>
              </g>
              <g id="Group_144" data-name="Group 144">
                <g id="Group_143" data-name="Group 143">
                  <g id="Group_139" data-name="Group 139">
                    <g id="Group_137" data-name="Group 137">
                      <path id="Path_111" data-name="Path 111" d="M107.153,71.722a1.038,1.038,0,0,0,1.037-1.037V66.112a1.037,1.037,0,1,0-2.074,0v4.573A1.037,1.037,0,0,0,107.153,71.722Z" fill="#00528a"/>
                    </g>
                    <g id="Group_138" data-name="Group 138">
                      <path id="Path_112" data-name="Path 112" d="M107.153,79.724a1.037,1.037,0,0,0,1.037-1.037V74.114a1.037,1.037,0,0,0-2.074,0v4.573A1.037,1.037,0,0,0,107.153,79.724Z" fill="#00528a"/>
                    </g>
                  </g>
                  <g id="Group_142" data-name="Group 142">
                    <g id="Group_140" data-name="Group 140">
                      <path id="Path_113" data-name="Path 113" d="M100.734,73.436h4.108a1.036,1.036,0,1,0,0-2.073h-4.108a1.036,1.036,0,1,0,0,2.073Z" fill="#00528a"/>
                    </g>
                    <g id="Group_141" data-name="Group 141">
                      <path id="Path_114" data-name="Path 114" d="M109.464,73.436h4.108a1.036,1.036,0,0,0,0-2.073h-4.108a1.036,1.036,0,1,0,0,2.073Z" fill="#00528a"/>
                    </g>
                  </g>
                </g>
              </g>
            </g>
          </g>
        </g>
      </g>
    </g>
  </g>
</svg>
