<svg xmlns="http://www.w3.org/2000/svg" width="101.852" height="37.527" viewBox="0 0 101.852 37.527">
  <g id="logo" transform="translate(-282.878 -257.744)">
    <path id="Path_16" data-name="Path 16" d="M317.132,287.185c-.076,0-.112.054-.152.117a18.14,18.14,0,0,1-2.747,3.11,17.9,17.9,0,0,1-3.262,2.371,18.679,18.679,0,0,1-3.612,1.6,20.187,20.187,0,0,1-3.124.708,19.669,19.669,0,0,1-3.518.161,15.316,15.316,0,0,1-2.344-.264,18.994,18.994,0,0,1-2.908-.757,18.508,18.508,0,0,1-3.872-1.878,19.6,19.6,0,0,1-2.7-2.084,18.741,18.741,0,0,1-5.185-8.219,20.722,20.722,0,0,1-.645-2.913,19.3,19.3,0,0,1-.161-3.63,16.822,16.822,0,0,1,.417-3.061,18.466,18.466,0,0,1,1.739-4.723,18.727,18.727,0,0,1,2.164-3.218,18.517,18.517,0,0,1,1.264-1.385,19.264,19.264,0,0,1,3.72-2.837,18.735,18.735,0,0,1,3.728-1.658,19.614,19.614,0,0,1,3.128-.7,18.553,18.553,0,0,1,7.7.538,18.776,18.776,0,0,1,3.186,1.223,19.179,19.179,0,0,1,5.552,4.19,17.913,17.913,0,0,1,2.259,3.043c.036.063.058.139.139.166,0,.112-.085.17-.157.233a6.036,6.036,0,0,0-1.9,3.177,5.632,5.632,0,0,0,1.179,5.185,7.827,7.827,0,0,0,1.873,1.582c.439.269.878.538,1.34.766.076.036.175.063.17.184-.1.565-.152,1.138-.255,1.7a18.543,18.543,0,0,1-1.049,3.625c-.04.1-.072.215-.184.269a1.18,1.18,0,0,1-.6-.6,3.176,3.176,0,0,1-.4-1.519c-.009-.246,0-.493,0-.739,0-.157-.045-.233-.215-.233h-3.827c-.166,0-.22.067-.224.229a6.852,6.852,0,0,0,1.586,4.728A5.582,5.582,0,0,0,316.913,287C317,287.037,317.114,287.055,317.132,287.185Z" fill="#d1ebed"/>
    <path id="Exclusion_3" data-name="Exclusion 3" d="M4.18,21.923H4.164c-.66,0-1.331-.007-1.994-.007s-1.334,0-1.994.007c-.08,0-.132-.006-.157-.036s-.025-.072-.009-.157c.584-3.308,1.165-6.621,1.727-9.825l.052-.3c.651-3.7,1.324-7.533,2-11.4A.285.285,0,0,1,3.851.048.208.208,0,0,1,4.008,0h.017C4.95,0,5.889,0,6.8.007h0c1.211,0,2.464,0,3.7.011a7.851,7.851,0,0,1,1.282.109,6.812,6.812,0,0,1,1.241.334,6.046,6.046,0,0,1,1.311.678,4.8,4.8,0,0,1,1.005.928,4.723,4.723,0,0,1,.692,1.176A5.8,5.8,0,0,1,16.4,4.665a8.428,8.428,0,0,1-.843,5.068,6.439,6.439,0,0,1-.574.925,6.248,6.248,0,0,1-.7.791,6.63,6.63,0,0,1-.827.665,7.6,7.6,0,0,1-.942.545c-.187.093-.2.185-.157.354.72,2.846,1.43,5.681,2.118,8.422l.011.043c.058.229.082.332.04.387s-.164.057-.38.057H11.093c-.435,0-.767,0-1.077.006a.25.25,0,0,1-.161-.039.253.253,0,0,1-.077-.15C9.5,20.491,9.209,19.227,8.93,18l-.015-.067c-.284-1.243-.577-2.528-.865-3.8a.346.346,0,0,0-.082-.182A.255.255,0,0,0,7.78,13.9H7.763c-.265.008-.538.012-.833.012s-.606,0-.959-.012H5.952a.218.218,0,0,0-.158.046.268.268,0,0,0-.066.156c-.286,1.656-.581,3.342-.866,4.973v.018l-.045.257-.089.511c-.037.214-.076.434-.11.628-.071.4-.144.815-.212,1.227a.268.268,0,0,1-.062.157.214.214,0,0,1-.164.05Zm2.9-11.7h.639a.09.09,0,0,1,0,.031h.919a3.066,3.066,0,0,0,2.864-1.7,5.268,5.268,0,0,0,.556-3.235,1.73,1.73,0,0,0-1.882-1.613c-.9,0-1.691-.006-2.415-.018h-.02a.206.206,0,0,0-.144.04.249.249,0,0,0-.064.149C7.171,5.924,6.8,7.992,6.441,9.993l-.005.028c-.016.089-.012.137.013.167a.169.169,0,0,0,.135.04H6.6c.142-.006.3-.009.483-.009Z" transform="translate(368.241 265.634)" fill="#fff"/>
    <path id="Exclusion_2" data-name="Exclusion 2" d="M.194,21.927c-.093,0-.144-.014-.171-.046a.274.274,0,0,1-.01-.2C.39,19.56.767,17.414,1.13,15.339l.02-.117c.165-.94.335-1.912.5-2.867.345-1.962.694-3.954,1-5.712l.005-.031c.325-1.854.661-3.772.992-5.658L3.686.736V.715c.031-.174.064-.354.092-.532a.221.221,0,0,1,.066-.14A.215.215,0,0,1,4,0H6.039c1.073,0,2.18,0,3.269.018a8.68,8.68,0,0,1,1.345.118,7.038,7.038,0,0,1,1.264.335,6.31,6.31,0,0,1,1.171.577A6.468,6.468,0,0,1,14.874,2.73a6.6,6.6,0,0,1,.554.924,7.371,7.371,0,0,1,.4,1A8.863,8.863,0,0,1,16.1,5.72c.063.327.111.662.142,1s.047.662.047,1a12.181,12.181,0,0,1-.167,2c-.074.451-.141.911-.2,1.356v.006c-.125.868-.254,1.765-.449,2.635-.1.421-.2.83-.328,1.216a12.316,12.316,0,0,1-.435,1.17,11.024,11.024,0,0,1-.557,1.115,10.179,10.179,0,0,1-.693,1.052,10.407,10.407,0,0,1-.68.814,9.389,9.389,0,0,1-.735.711,8.753,8.753,0,0,1-.79.609,8.391,8.391,0,0,1-1.741.91,8.829,8.829,0,0,1-.95.3,9.536,9.536,0,0,1-1,.2c-.341.049-.7.082-1.053.1s-.73.023-1.188.023c-.32,0-.641,0-.952-.007s-.634-.007-.952-.007a.017.017,0,0,1,0,.013h-1.6c-.647,0-1.141,0-1.6.006ZM7.757,3.688a.226.226,0,0,0-.153.04.245.245,0,0,0-.07.158c-.052.352-.116.706-.178,1.049V4.96c-.023.125-.046.255-.068.382-.254,1.447-.513,2.912-.763,4.329L6.5,9.837c-.249,1.409-.506,2.866-.758,4.3-.122.682-.245,1.378-.363,2.05l-.011.063v.028c-.1.583-.209,1.186-.315,1.779-.015.077-.018.127.007.159s.065.039.141.039c.151,0,.3,0,.448.009.177,0,.361.01.542.01.245,0,.449-.009.641-.028a4.256,4.256,0,0,0,3.46-2.164,7.817,7.817,0,0,0,.9-2.635c.254-1.458.488-3.052.713-4.871a8.7,8.7,0,0,0,.009-2.608A2.439,2.439,0,0,0,10,3.823,5.455,5.455,0,0,0,8.756,3.7H8.118c-.133,0-.241,0-.338-.007Z" transform="translate(351.347 265.63)" fill="#fff"/>
    <path id="Path_19" data-name="Path 19" d="M974.67,440.062c-.529-.287-1.062-.569-1.573-.892a6.865,6.865,0,0,1-2.545-2.581,5.981,5.981,0,0,1,.408-6.278,6.369,6.369,0,0,1,1.205-1.344,7.647,7.647,0,0,1,3.769-1.645,7.1,7.1,0,0,1,4.369.574,5.648,5.648,0,0,1,2.962,3.948,8.67,8.67,0,0,1,.211,1.954c0,.161-.036.22-.211.215-1.331-.013-2.657-.018-3.988-.018-.152,0-.184-.049-.179-.193a4.981,4.981,0,0,0-.076-1.183,1.969,1.969,0,0,0-2.5-1.716,2.9,2.9,0,0,0-2.3,3.164,2.263,2.263,0,0,0,.789,1.344,6.074,6.074,0,0,0,1.721,1.076,15.545,15.545,0,0,1,2.267,1.259,6.056,6.056,0,0,1,2.7,3.634,6.522,6.522,0,0,1-4.826,8.089,8.027,8.027,0,0,1-5.472-.4,6.1,6.1,0,0,1-2.33-1.976,7.271,7.271,0,0,1-1.223-4.432c0-.117.045-.152.157-.152q2.05.013,4.1.013c.152,0,.143.076.139.184a6.093,6.093,0,0,0,.094,1.537,2.216,2.216,0,0,0,.851,1.421.347.347,0,0,1,.206.081,2.28,2.28,0,0,0,1.219.309,3.773,3.773,0,0,0,.977-.081,2.294,2.294,0,0,0,1.546-1.353,3.089,3.089,0,0,0,.139-2.5,3.031,3.031,0,0,0-1.434-1.425,10.245,10.245,0,0,0-.941-.471C974.814,440.188,974.715,440.161,974.67,440.062Z" transform="translate(-654.262 -161.884)" fill="#fff"/>
    <path id="Path_20" data-name="Path 20" d="M1324.03,455.914h-5.781c-.206,0-.242-.045-.206-.246q1.075-6.1,2.142-12.189.807-4.6,1.613-9.214c.036-.2.09-.278.318-.273,1.291.013,2.581.009,3.876,0,.2,0,.242.031.206.242q-1.452,8.208-2.891,16.424c-.081.457-.152.914-.246,1.367-.04.188.013.22.188.22q3.582,0,7.166-.009c.2,0,.26.027.215.251-.206,1.071-.39,2.142-.574,3.218-.027.166-.085.215-.255.215C1327.88,455.91,1325.95,455.914,1324.03,455.914Z" transform="translate(-988.754 -168.361)" fill="#fff"/>
    <path id="Path_21" data-name="Path 21" d="M1632.18,455.823h-1.994c-.152,0-.188-.036-.161-.188q1.022-5.754,2.035-11.508.881-5,1.761-10.007c.027-.152.063-.224.246-.224q1.983.013,3.966,0c.175,0,.211.04.179.211q-.914,5.136-1.815,10.271-.888,5.035-1.77,10.074c-.072.4-.148.793-.211,1.192-.022.148-.081.179-.219.175C1633.53,455.818,1632.85,455.823,1632.18,455.823Z" transform="translate(-1286.763 -168.27)" fill="#fff"/>
    <path id="Path_22" data-name="Path 22" d="M525,451.26q1.916-11.071,3.836-22.16a4.541,4.541,0,0,1,.641.515q3.818,3.253,7.632,6.511,2.319,1.976,4.634,3.953c.2.166.036.206-.067.273q-3.932,2.581-7.865,5.158-4.3,2.83-8.609,5.655A.317.317,0,0,1,525,451.26Z" transform="translate(-231.265 -163.685)" fill="#33bed6"/>
    <path id="Path_24" data-name="Path 24" d="M966.3,769.928V769h.022v.928A.038.038,0,0,1,966.3,769.928Z" transform="translate(-652.789 -488.353)" fill="#d9f3f5"/>
  </g>
</svg>
